# xmcd
#
# Track frame offsets: 
#        150
#        20406
#        39018
#        60510
#        80740
#        105877
#        131727
#
# Disc length: 2197 seconds
#
# Revision: 1
# Processed by: cddbd v1.5.2PL0 Copyright (c) Steve Scherf et al.
# Submitted via: ExactAudioCopyFreeDBPlugin 1.0
#
DISCID=4a089307
DTITLE=Switch - Switch II
DYEAR=1979
DGENRE=Funk
TTITLE0=You're The One For Me
TTITLE1=Next To You
TTITLE2=Best Beat In Town
TTITLE3=Calling On All Girls
TTITLE4=Go On Doin' What You Feel
TTITLE5=Fallin'
TTITLE6=I Call Your Name
EXTD=
EXTT0=
EXTT1=
EXTT2=
EXTT3=
EXTT4=
EXTT5=
EXTT6=
PLAYORDER=
